# xmcd
#
# Track frame offsets: 
#        150
#        14385
#        29135
#        42342
#        57552
#        71955
#        87967
#        99507
#        113887
#        128055
#
# Disc length: 1929 seconds
#
# Revision: 2
# Processed by: cddbd v1.5PL3 Copyright (c) Steve Scherf et al.
# Submitted via: ExactAudioCopy v0.95a3
#
DISCID=8f07870a
DTITLE=Paul Jefferson - Paul Jefferson
DYEAR=1996
DGENRE=Country
TTITLE0=Check Please
TTITLE1=I Will
TTITLE2=I Might Just Make It
TTITLE3=Unconditionally
TTITLE4=Nothing Comes Close
TTITLE5=I Can't Turn That Train Around
TTITLE6=Missouri
TTITLE7=Fear Of A Broken Heart
TTITLE8=I'm Here
TTITLE9=Common Ground
EXTD=
EXTT0=
EXTT1=
EXTT2=
EXTT3=
EXTT4=
EXTT5=
EXTT6=
EXTT7=
EXTT8=
EXTT9=
PLAYORDER=
